<?xml version="1.0" encoding="UTF-8"?>
<!DOCTYPE svg PUBLIC "-//W3C//DTD SVG 1.1//EN" "http://www.w3.org/Graphics/SVG/1.1/DTD/svg11.dtd">
<!-- Creator: CorelDRAW X6 -->
<svg xmlns="http://www.w3.org/2000/svg" xml:space="preserve" width="6.03676in" height="1.40268in" version="1.1" style="shape-rendering:geometricPrecision; text-rendering:geometricPrecision; image-rendering:optimizeQuality; fill-rule:evenodd; clip-rule:evenodd"
viewBox="0 0 6037 1403"
 xmlns:xlink="http://www.w3.org/1999/xlink">
 <defs>
  <style type="text/css">
   <![CDATA[
    .fil0 {fill:black;fill-rule:nonzero}
    .fil2 {fill:#1F895D;fill-rule:nonzero}
    .fil1 {fill:#3AAC80;fill-rule:nonzero}
    .white {fill:white;fill-rule:nonzero}
   ]]>
  </style>
 </defs>
 <g id="Layer_x0020_1">
  <metadata id="CorelCorpID_0Corel-Layer"/>
  <g id="_371102080">
   <path class="white" d="M2741 431c-30,-28 -64,-38 -105,-38 -50,0 -77,15 -77,42 0,27 25,43 79,46 80,5 181,23 181,135 0,75 -61,139 -182,139 -67,0 -134,-11 -196,-75l51 -75c30,33 99,58 146,59 39,1 76,-20 76,-51 0,-29 -24,-41 -84,-45 -80,-6 -175,-35 -175,-131 0,-98 101,-132 178,-132 66,0 116,13 165,56l-58 69z"/>
   <path class="white" d="M2993 319l0 221c0,64 35,113 102,113 64,0 108,-54 108,-118l0 -216 104 0 0 424 -93 0 -7 -57c-44,43 -84,63 -143,63 -101,0 -175,-76 -175,-208l0 -222 105 0z"/>
   <path class="white" d="M3753 531c0,-66 -45,-120 -120,-120 -75,0 -120,54 -120,120 0,66 49,120 120,120 71,0 120,-54 120,-120zm-354 388l0 -600 98 0 7 58c33,-47 89,-68 137,-68 130,0 217,97 217,221 0,124 -78,221 -214,221 -45,0 -111,-14 -141,-60l0 226 -105 0z"/>
   <path class="white" d="M4017 530c0,81 56,129 125,129 165,0 165,-256 0,-256 -69,0 -125,47 -125,128zm254 -211l100 0 0 423 -99 0 -5 -62c-24,50 -90,74 -137,75 -125,1 -218,-76 -218,-225 0,-146 97,-222 220,-221 57,0 111,27 135,69l3 -58z"/>
   <path class="white" d="M4736 431c-30,-28 -64,-38 -105,-38 -50,0 -77,15 -77,42 0,27 25,43 79,46 80,5 181,23 181,135 0,75 -61,139 -182,139 -67,0 -134,-11 -196,-75l51 -75c30,33 99,58 146,59 39,1 76,-20 76,-51 0,-29 -24,-41 -84,-45 -80,-6 -175,-35 -175,-131 0,-98 101,-132 178,-132 66,0 116,13 165,56l-58 69z"/>
   <path class="white" d="M4985 141l0 235c38,-49 84,-63 132,-63 120,0 173,81 173,206l0 223 -105 0 0 -222c0,-77 -40,-110 -96,-110 -62,0 -105,52 -105,116l0 216 -105 0 0 -600 105 0z"/>
   <path class="white" d="M5379 742l105 0 0 -425 -105 0 0 425zm0 -425zm114 -117c0,81 -124,81 -124,0 0,-81 124,-81 124,0z"/>
   <path class="white" d="M5932 531c0,-66 -45,-120 -120,-120 -75,0 -120,54 -120,120 0,66 49,120 120,120 71,0 120,-54 120,-120zm-354 388l0 -600 98 0 7 58c33,-47 89,-68 137,-68 130,0 217,97 217,221 0,124 -78,221 -214,221 -45,0 -111,-14 -141,-60l0 226 -105 0z"/>
   <polygon class="fil1" points="1594,0 1089,0 576,669 1052,669 646,1403 1674,374 1315,374 "/>
   <polygon class="fil2" points="1990,0 1696,0 1472,300 1870,300 767,1398 2328,168 1890,168 "/>
   <polygon class="fil2" points="965,0 699,0 0,916 606,916 548,1403 884,756 404,756 "/>
  </g>
 </g>
</svg>
